<svg width="36" height="38" viewBox="0 0 36 38" fill="none" xmlns="http://www.w3.org/2000/svg">
<path d="M35.1297 20.511C35.1297 22.5122 35.1373 24.5135 35.1297 26.5147C35.0995 31.3238 33.0494 34.2458 28.4349 35.9883C23.3741 37.9059 18.1166 37.8678 12.8364 37.3199C9.84071 37.008 6.99635 36.1633 4.49241 34.4284C2.19272 32.8381 0.944534 30.6618 0.778109 27.8996C0.717591 26.8723 0.778109 25.8831 2.1549 25.731C3.49386 25.5864 4.06122 26.294 4.1293 27.5267C4.25034 29.9465 5.71034 31.4303 7.77553 32.488C9.70454 33.4696 11.8 33.8881 13.9332 34.086C17.9199 34.4664 21.8838 34.436 25.7797 33.3707C30.2429 32.1532 31.7937 30.1215 31.7785 25.594C31.771 21.4469 31.771 7.20988 31.7785 3.06281C31.7785 1.48768 32.3232 0.741969 33.4655 0.825671C34.8877 0.932202 35.1676 1.89097 35.1524 3.10086C35.1146 5.54344 35.1373 18.0684 35.1373 20.5034L35.1297 20.511Z" fill="#384696"/>
<path d="M18.0409 0.361339C22.9656 0.361339 27.8902 0.361339 32.8225 0.361339C33.7908 0.361339 34.7591 0.384166 35.0465 1.62448C35.3415 2.91807 34.638 3.80075 33.1705 3.81597C29.1384 3.83879 25.1064 3.86923 21.082 3.80075C19.9472 3.77792 15.8471 3.77031 14.6368 3.80075C10.7106 3.88445 6.77697 3.83879 2.84328 3.82358C1.9809 3.82358 1.11852 3.77031 0.80836 2.71262C0.422556 1.39621 1.05043 0.46026 2.53313 0.399385C4.41676 0.315683 6.31551 0.368948 8.20671 0.361339C11.4898 0.361339 14.7729 0.361339 18.056 0.361339H18.0409Z" fill="#384696"/>
<path d="M4.12175 10.033C4.12175 12.7648 4.12175 15.5041 4.12175 18.2359C4.12175 18.7761 4.09905 19.3088 2.86599 19.4686C1.57998 19.636 0.702467 19.2403 0.687338 18.4261C0.664644 16.189 0.634385 13.9518 0.702468 11.7147C0.725162 11.0831 0.732727 8.80793 0.702468 8.13831C0.619255 5.95443 0.664643 3.77817 0.679773 1.5943C0.679773 1.11491 0.732727 0.635524 1.78423 0.46051C3.09294 0.24745 4.0234 0.597478 4.08392 1.41928C4.16713 2.46937 4.11418 3.51945 4.12175 4.56954C4.12175 6.39577 4.12175 8.2144 4.12175 10.0406V10.033Z" fill="#384696"/>
<path d="M7.5259 16.3713C7.54103 17.5279 8.28238 18.266 9.40196 18.2508C10.4459 18.2355 11.2024 17.429 11.1872 16.3256C11.1721 15.2603 10.3778 14.4613 9.32632 14.4689C8.27481 14.4689 7.51077 15.2831 7.5259 16.3713ZM6.54248 16.455C6.48196 14.8494 7.66207 13.571 9.28093 13.5178C10.4913 13.4797 12.1102 14.37 12.1404 16.3332C12.1631 17.8551 11.0057 19.1563 9.49274 19.2248C8.22186 19.2856 6.48196 18.304 6.54248 16.455Z" fill="#384696"/>
<path d="M10.0903 17.9231C11.0011 17.9231 11.7395 17.1804 11.7395 16.2643C11.7395 15.3482 11.0011 14.6055 10.0903 14.6055C9.17956 14.6055 8.44122 15.3482 8.44122 16.2643C8.44122 17.1804 9.17956 17.9231 10.0903 17.9231Z" fill="#384696"/>
<path d="M25.9612 16.3713C25.9764 17.5279 26.7177 18.266 27.8373 18.2508C28.8812 18.2355 29.6377 17.429 29.6226 16.3256C29.6075 15.2603 28.8132 14.4613 27.7616 14.4689C26.7101 14.4689 25.9461 15.2831 25.9612 16.3713ZM24.9778 16.455C24.9173 14.8494 26.0974 13.571 27.7163 13.5178C28.9266 13.4797 30.5455 14.37 30.5757 16.3332C30.5984 17.8551 29.441 19.1563 27.9281 19.2248C26.6572 19.2856 24.9173 18.304 24.9778 16.455Z" fill="#384696"/>
<path d="M28.5257 18.0306C29.4365 18.0306 30.1748 17.2879 30.1748 16.3717C30.1748 15.4556 29.4365 14.7129 28.5257 14.7129C27.6149 14.7129 26.8766 15.4556 26.8766 16.3717C26.8766 17.2879 27.6149 18.0306 28.5257 18.0306Z" fill="#384696"/>
</svg>
