<?xml version="1.0" encoding="UTF-8"?>
<!DOCTYPE svg PUBLIC "-//W3C//DTD SVG 1.1//EN" "http://www.w3.org/Graphics/SVG/1.1/DTD/svg11.dtd">
<svg xmlns="http://www.w3.org/2000/svg" version="1.1" width="600px" height="395px" style="shape-rendering:geometricPrecision; text-rendering:geometricPrecision; image-rendering:optimizeQuality; fill-rule:evenodd; clip-rule:evenodd" xmlns:xlink="http://www.w3.org/1999/xlink">
<g><path style="opacity:1" fill="#d6cbcb" d="M 161.5,195.5 C 162.496,195.414 163.329,195.748 164,196.5C 169.081,216.41 161.581,224.91 141.5,222C 135.17,221.832 131.503,218.666 130.5,212.5C 130.453,211 131.119,210 132.5,209.5C 134.01,211.322 135.343,213.322 136.5,215.5C 155.978,222.918 164.311,216.252 161.5,195.5 Z"/></g>
<g><path style="opacity:1" fill="#d6c2c1" d="M 171.5,195.5 C 172.822,195.33 173.989,195.663 175,196.5C 171.302,215.038 178.469,221.871 196.5,217C 197.931,216.535 199.097,215.701 200,214.5C 200.333,208.5 200.667,202.5 201,196.5C 202.714,195.075 204.047,195.408 205,197.5C 209.083,217.083 201.25,225.25 181.5,222C 175.741,221.238 172.241,218.071 171,212.5C 170.26,206.782 170.427,201.115 171.5,195.5 Z"/></g>
<g><path style="opacity:0.482" fill="#b48f8e" d="M 214.5,195.5 C 212.532,203.433 211.865,211.766 212.5,220.5C 211.507,212.016 211.174,203.349 211.5,194.5C 212.791,194.263 213.791,194.596 214.5,195.5 Z"/></g>
<g><path style="opacity:1" fill="#d9c2c1" d="M 214.5,195.5 C 223.2,201.881 231.7,208.547 240,215.5C 240.333,209.5 240.667,203.5 241,197.5C 241.725,195.842 242.892,195.342 244.5,196C 245.484,204.749 245.817,213.582 245.5,222.5C 243.217,222.392 241.217,221.559 239.5,220C 231.833,214.167 224.167,208.333 216.5,202.5C 215.504,208.798 215.17,215.132 215.5,221.5C 214.209,221.737 213.209,221.404 212.5,220.5C 211.865,211.766 212.532,203.433 214.5,195.5 Z"/></g>
<g><path style="opacity:1" fill="#d6c8c7" d="M 262.5,216.5 C 261.711,216.783 261.044,217.283 260.5,218C 268.493,218.5 276.493,218.666 284.5,218.5C 286.048,218.821 286.715,219.821 286.5,221.5C 274.814,221.832 263.148,221.499 251.5,220.5C 260.102,213.193 269.102,206.359 278.5,200C 270.167,199.667 261.833,199.333 253.5,199C 252.167,198 252.167,197 253.5,196C 264.833,195.333 276.167,195.333 287.5,196C 287.833,196.333 288.167,196.667 288.5,197C 279.956,203.717 271.29,210.217 262.5,216.5 Z"/></g>
<g><path style="opacity:1" fill="#d6bdbc" d="M 295.5,195.5 C 297.124,195.36 298.29,196.027 299,197.5C 299.61,205.519 299.443,213.519 298.5,221.5C 297.167,221.5 295.833,221.5 294.5,221.5C 294.197,212.749 294.53,204.082 295.5,195.5 Z"/></g>
<g><path style="opacity:1" fill="#dacac9" d="M 331.5,221.5 C 330.864,214.067 330.198,206.734 329.5,199.5C 324.821,199.666 320.155,199.499 315.5,199C 314.167,198 314.167,197 315.5,196C 326.495,195.5 337.495,195.333 348.5,195.5C 348.5,196.833 348.5,198.167 348.5,199.5C 343.833,199.5 339.167,199.5 334.5,199.5C 334.666,206.175 334.5,212.842 334,219.5C 333.583,220.756 332.75,221.423 331.5,221.5 Z"/></g>
<g><path style="opacity:1" fill="#dacecd" d="M 358.5,217.5 C 367.652,218.494 376.985,218.827 386.5,218.5C 386.5,219.5 386.5,220.5 386.5,221.5C 375.833,221.5 365.167,221.5 354.5,221.5C 354.5,212.833 354.5,204.167 354.5,195.5C 365.505,195.333 376.505,195.5 387.5,196C 388.337,197.011 388.67,198.178 388.5,199.5C 378.5,199.5 368.5,199.5 358.5,199.5C 358.5,201.833 358.5,204.167 358.5,206.5C 368.172,206.334 377.839,206.5 387.5,207C 388.833,208 388.833,209 387.5,210C 377.839,210.5 368.172,210.666 358.5,210.5C 358.5,212.833 358.5,215.167 358.5,217.5 Z"/></g>
<g><path style="opacity:1" fill="#d5c5c5" d="M 407.5,194.5 C 415.499,193.554 422.166,196.054 427.5,202C 426.646,203.022 425.646,203.855 424.5,204.5C 419.095,199.693 412.762,198.193 405.5,200C 396.19,205.732 396.19,211.399 405.5,217C 412.83,219.666 419.163,218.166 424.5,212.5C 425.646,213.145 426.646,213.978 427.5,215C 420.155,222.825 411.489,224.492 401.5,220C 394.642,215.257 392.975,209.09 396.5,201.5C 399.757,198.38 403.424,196.047 407.5,194.5 Z"/></g>
<g><path style="opacity:1" fill="#d4cccc" d="M 435.5,195.5 C 436.117,195.611 436.617,195.944 437,196.5C 437.498,199.817 437.665,203.15 437.5,206.5C 446.167,206.5 454.833,206.5 463.5,206.5C 463.335,203.15 463.502,199.817 464,196.5C 464.718,195.549 465.551,195.383 466.5,196C 467.833,204.667 467.833,213.333 466.5,222C 465.551,222.617 464.718,222.451 464,221.5C 463.502,218.183 463.335,214.85 463.5,211.5C 454.833,211.5 446.167,211.5 437.5,211.5C 437.915,215.375 437.415,219.042 436,222.5C 435.333,221.833 434.667,221.167 434,220.5C 433.333,212.833 433.333,205.167 434,197.5C 434.717,196.956 435.217,196.289 435.5,195.5 Z"/></g>
<g><path style="opacity:0.137" fill="#c77774" d="M 329.5,199.5 C 330.198,206.734 330.864,214.067 331.5,221.5C 329.537,214.576 328.87,207.243 329.5,199.5 Z"/></g>
<g><path style="opacity:0.137" fill="#c77673" d="M 262.5,216.5 C 269.833,217.167 277.167,217.833 284.5,218.5C 276.493,218.666 268.493,218.5 260.5,218C 261.044,217.283 261.711,216.783 262.5,216.5 Z"/></g>
<g><path style="opacity:0.494" fill="#d49e9c" d="M 358.5,217.5 C 368.172,217.334 377.839,217.5 387.5,218C 388.8,219.579 388.466,220.745 386.5,221.5C 386.5,220.5 386.5,219.5 386.5,218.5C 376.985,218.827 367.652,218.494 358.5,217.5 Z"/></g>
<g><path style="opacity:1" fill="#d44438" d="M 222.5,244.5 C 223.092,247.127 223.425,249.794 223.5,252.5C 223.167,253.5 222.5,254.167 221.5,254.5C 217.217,256.259 213.383,255.592 210,252.5C 209.517,251.552 209.351,250.552 209.5,249.5C 210.5,249.5 211.5,249.5 212.5,249.5C 214.142,251.081 216.142,251.747 218.5,251.5C 218.762,250.022 218.429,248.689 217.5,247.5C 211.205,246.967 208.371,243.634 209,237.5C 209.5,235.667 210.667,234.5 212.5,234C 219.075,231.724 222.742,233.891 223.5,240.5C 220.436,240.072 217.436,239.406 214.5,238.5C 214.5,239.5 214.5,240.5 214.5,241.5C 217.636,241.603 220.302,242.603 222.5,244.5 Z"/></g>
<g><path style="opacity:1" fill="#e2231c" d="M 260.5,234.5 C 260.808,240.425 260.475,246.259 259.5,252C 260.624,252.249 261.624,252.749 262.5,253.5C 260.955,254.452 259.288,254.785 257.5,254.5C 257.5,254.167 257.5,253.833 257.5,253.5C 257.334,248.489 257.501,243.489 258,238.5C 258.122,236.563 258.955,235.23 260.5,234.5 Z"/></g>
<g><path style="opacity:1" fill="#e43b2f" d="M 300.5,235.5 C 300.5,237.167 300.5,238.833 300.5,240.5C 301.833,240.5 303.167,240.5 304.5,240.5C 306.035,243.33 305.035,244.663 301.5,244.5C 301.338,246.527 301.505,248.527 302,250.5C 303.011,251.337 304.178,251.67 305.5,251.5C 305.5,252.5 305.5,253.5 305.5,254.5C 303.958,255.301 302.292,255.634 300.5,255.5C 298.983,255.489 297.816,254.823 297,253.5C 297.03,249.175 295.863,245.341 293.5,242C 295.429,240.306 296.429,238.139 296.5,235.5C 297.833,235.5 299.167,235.5 300.5,235.5 Z"/></g>
<g><path style="opacity:0.996" fill="#f44034" d="M 317.5,239.5 C 316.391,239.443 315.391,239.11 314.5,238.5C 313.199,236.544 313.699,234.877 316,233.5C 319.397,235.183 319.897,237.183 317.5,239.5 Z"/></g>
<g><path style="opacity:0.455" fill="#d4635f" d="M 300.5,235.5 C 301.434,236.568 301.768,237.901 301.5,239.5C 302.791,239.263 303.791,239.596 304.5,240.5C 303.167,240.5 301.833,240.5 300.5,240.5C 300.5,238.833 300.5,237.167 300.5,235.5 Z"/></g>
<g><path style="opacity:0.769" fill="#e5584f" d="M 340.5,240.5 C 337.5,240.5 334.5,240.5 331.5,240.5C 332.878,239.766 334.378,239.099 336,238.5C 337.622,239.099 339.122,239.766 340.5,240.5 Z"/></g>
<g><path style="opacity:0.824" fill="#e85d53" d="M 387.5,240.5 C 384.098,240.342 380.764,240.676 377.5,241.5C 380.719,238.511 384.053,238.177 387.5,240.5 Z"/></g>
<g><path style="opacity:1" fill="#d5473b" d="M 239.5,238.5 C 249.012,241.22 251.012,246.72 245.5,255C 237.756,258.462 233.09,256.129 231.5,248C 231.901,242.776 234.567,239.61 239.5,238.5 Z M 237.5,244.5 C 243.555,243.942 244.888,246.109 241.5,251C 236.795,251.106 235.462,248.939 237.5,244.5 Z"/></g>
<g><path style="opacity:0.741" fill="#dd5852" d="M 260.5,234.5 C 258.955,235.23 258.122,236.563 258,238.5C 257.501,243.489 257.334,248.489 257.5,253.5C 256.347,247.347 256.18,241.014 257,234.5C 258.292,233.209 259.458,233.209 260.5,234.5 Z"/></g>
<g><path style="opacity:1" fill="#e0392e" d="M 282.5,240.5 C 283.822,240.33 284.989,240.663 286,241.5C 286.499,245.821 286.666,250.154 286.5,254.5C 282.936,255.423 279.269,255.756 275.5,255.5C 273.983,255.489 272.816,254.823 272,253.5C 270.543,249.259 270.209,244.926 271,240.5C 272.356,239.62 273.856,239.286 275.5,239.5C 275.335,242.85 275.502,246.183 276,249.5C 277.396,251.527 279.062,251.86 281,250.5C 281.179,246.975 281.679,243.641 282.5,240.5 Z"/></g>
<g><path style="opacity:0.996" fill="#f23627" d="M 331.5,240.5 C 334.5,240.5 337.5,240.5 340.5,240.5C 342.262,241.262 343.262,242.596 343.5,244.5C 343.492,247.545 343.159,250.545 342.5,253.5C 337.453,257.665 332.62,257.332 328,252.5C 325.462,247.326 326.629,243.326 331.5,240.5 Z M 338.5,245.5 C 339.523,247.577 339.19,249.577 337.5,251.5C 336.5,251.5 335.5,251.5 334.5,251.5C 334.167,250.5 333.5,249.833 332.5,249.5C 332.341,244.748 334.341,243.414 338.5,245.5 Z"/></g>
<g><path style="opacity:0.996" fill="#f4291d" d="M 364.5,240.5 C 365.5,240.833 366.167,241.5 366.5,242.5C 367.527,246.446 367.694,250.446 367,254.5C 366.329,255.252 365.496,255.586 364.5,255.5C 364.665,252.15 364.498,248.817 364,245.5C 363.617,244.944 363.117,244.611 362.5,244.5C 360.833,244.5 359.167,244.5 357.5,244.5C 357.665,247.85 357.498,251.183 357,254.5C 356.076,256.495 354.91,256.828 353.5,255.5C 353.854,250.605 353.854,245.605 353.5,240.5C 357.167,240.5 360.833,240.5 364.5,240.5 Z"/></g>
<g><path style="opacity:0.996" fill="#f33425" d="M 387.5,240.5 C 388.038,242.117 388.371,243.784 388.5,245.5C 388.167,245.5 387.833,245.5 387.5,245.5C 386.833,245.167 386.167,244.833 385.5,244.5C 385.167,244.5 384.833,244.5 384.5,244.5C 383.614,243.224 382.614,243.224 381.5,244.5C 381.624,245.107 381.957,245.44 382.5,245.5C 382.833,245.5 383.167,245.5 383.5,245.5C 384.568,246.434 385.901,246.768 387.5,246.5C 388.117,246.611 388.617,246.944 389,247.5C 390.287,255.441 387.12,258.107 379.5,255.5C 379.027,254.094 378.027,253.427 376.5,253.5C 375.741,251.334 376.741,249.834 379.5,249C 376.378,247.245 375.712,244.745 377.5,241.5C 380.764,240.676 384.098,240.342 387.5,240.5 Z"/></g>
<g><path style="opacity:0.137" fill="#cc726e" d="M 282.5,240.5 C 283.884,239.199 285.384,239.199 287,240.5C 287.815,245.352 287.648,250.019 286.5,254.5C 286.666,250.154 286.499,245.821 286,241.5C 284.989,240.663 283.822,240.33 282.5,240.5 Z"/></g>
<g><path style="opacity:0.137" fill="#d56863" d="M 314.5,238.5 C 315.391,239.11 316.391,239.443 317.5,239.5C 318.833,244.833 318.833,250.167 317.5,255.5C 317.827,250.456 317.494,245.456 316.5,240.5C 315.914,240.709 315.414,241.043 315,241.5C 314.501,245.821 314.334,250.154 314.5,254.5C 313.243,249.297 313.243,243.964 314.5,238.5 Z"/></g>
<g><path style="opacity:0.996" fill="#f2281f" d="M 317.5,255.5 C 316.053,256.885 315.053,256.552 314.5,254.5C 314.334,250.154 314.501,245.821 315,241.5C 315.414,241.043 315.914,240.709 316.5,240.5C 317.494,245.456 317.827,250.456 317.5,255.5 Z"/></g>
<g><path style="opacity:0.455" fill="#db6b65" d="M 387.5,240.5 C 389.597,241.879 389.93,243.545 388.5,245.5C 388.371,243.784 388.038,242.117 387.5,240.5 Z"/></g>
<g><path style="opacity:0.243" fill="#c5625e" d="M 384.5,244.5 C 383.508,244.328 382.842,244.662 382.5,245.5C 381.957,245.44 381.624,245.107 381.5,244.5C 382.614,243.224 383.614,243.224 384.5,244.5 Z"/></g>
<g><path style="opacity:0.137" fill="#ca7471" d="M 366.5,242.5 C 367.117,242.611 367.617,242.944 368,243.5C 368.667,247.5 368.667,251.5 368,255.5C 366.708,256.791 365.542,256.791 364.5,255.5C 365.496,255.586 366.329,255.252 367,254.5C 367.694,250.446 367.527,246.446 366.5,242.5 Z"/></g>
<g><path style="opacity:0.243" fill="#d16763" d="M 385.5,244.5 C 386.167,244.833 386.833,245.167 387.5,245.5C 387.5,245.833 387.5,246.167 387.5,246.5C 385.901,246.768 384.568,246.434 383.5,245.5C 384.492,245.672 385.158,245.338 385.5,244.5 Z"/></g>
<g><path style="opacity:0.137" fill="#cb7470" d="M 222.5,244.5 C 224.584,246.993 224.917,249.66 223.5,252.5C 223.425,249.794 223.092,247.127 222.5,244.5 Z"/></g>
<g><path style="opacity:0.58" fill="#e1625b" d="M 338.5,245.5 C 339.586,245.62 340.253,246.287 340.5,247.5C 340.439,249.653 339.439,250.986 337.5,251.5C 339.19,249.577 339.523,247.577 338.5,245.5 Z"/></g>
<g><path style="opacity:0.243" fill="#c96e6a" d="M 343.5,244.5 C 344.152,245.449 344.486,246.615 344.5,248C 344.607,250.221 343.94,252.054 342.5,253.5C 343.159,250.545 343.492,247.545 343.5,244.5 Z"/></g>
<g><path style="opacity:0.663" fill="#f04d46" d="M 364.5,240.5 C 360.833,240.5 357.167,240.5 353.5,240.5C 353.854,245.605 353.854,250.605 353.5,255.5C 352.512,250.36 352.179,245.026 352.5,239.5C 355.249,239.726 357.916,239.393 360.5,238.5C 362.026,238.994 363.359,239.661 364.5,240.5 Z"/></g>
<g><path style="opacity:0.353" fill="#d56c67" d="M 362.5,244.5 C 363.117,244.611 363.617,244.944 364,245.5C 364.498,248.817 364.665,252.15 364.5,255.5C 363.883,255.389 363.383,255.056 363,254.5C 362.502,251.183 362.335,247.85 362.5,244.5 Z"/></g>
<g><path style="opacity:0.58" fill="#db726c" d="M 332.5,249.5 C 333.5,249.833 334.167,250.5 334.5,251.5C 333.167,251.5 332.5,250.833 332.5,249.5 Z"/></g>
<g><path style="opacity:0.851" fill="#d75851" d="M 260.5,234.5 C 261.167,240.014 261.833,245.681 262.5,251.5C 265.028,253.505 264.695,255.171 261.5,256.5C 259.829,256.332 258.496,255.665 257.5,254.5C 259.288,254.785 260.955,254.452 262.5,253.5C 261.624,252.749 260.624,252.249 259.5,252C 260.475,246.259 260.808,240.425 260.5,234.5 Z"/></g>
<g><path style="opacity:0.353" fill="#df5a52" d="M 380.5,250.5 C 380.833,250.5 381.167,250.5 381.5,250.5C 382.5,251.833 383.5,251.833 384.5,250.5C 385.043,250.56 385.376,250.893 385.5,251.5C 384.667,251.833 383.833,252.167 383,252.5C 381.624,252.316 380.791,251.649 380.5,250.5 Z"/></g>
<g><path style="opacity:0.455" fill="#dd6861" d="M 376.5,253.5 C 378.027,253.427 379.027,254.094 379.5,255.5C 377.973,255.573 376.973,254.906 376.5,253.5 Z"/></g>
<g><path style="opacity:0.243" fill="#ce6561" d="M 212.5,249.5 C 211.5,249.5 210.5,249.5 209.5,249.5C 209.351,250.552 209.517,251.552 210,252.5C 213.383,255.592 217.217,256.259 221.5,254.5C 221.389,255.117 221.056,255.617 220.5,256C 214.742,257.757 210.408,256.091 207.5,251C 208.818,248.647 210.485,248.147 212.5,249.5 Z"/></g>
<g><path style="opacity:0.243" fill="#c76b68" d="M 286.5,254.5 C 285.129,255.787 283.295,256.453 281,256.5C 278.967,256.494 277.134,256.161 275.5,255.5C 279.269,255.756 282.936,255.423 286.5,254.5 Z"/></g>
<g><path style="opacity:0.243" fill="#c86b68" d="M 305.5,254.5 C 305.209,255.649 304.376,256.316 303,256.5C 301.93,256.472 301.097,256.139 300.5,255.5C 301.097,256.139 301.93,256.472 303,256.5C 304.376,256.316 305.209,255.649 305.5,254.5 Z"/></g>
</svg>
