<svg width="352" height="67" viewBox="0 0 352 67" fill="none" xmlns="http://www.w3.org/2000/svg">
<path d="M242.81 35.1017C237.916 35.1017 233.029 35.0713 228.134 35.1246C227.128 35.1246 226.841 34.8582 226.848 33.8462C226.886 26.0314 226.886 18.2167 226.848 10.4019C226.848 9.38986 227.212 9.21484 228.112 9.21484C237.946 9.23767 247.773 9.23006 257.607 9.23767C258.038 9.23767 258.477 9.2605 258.893 9.33659C259.687 9.48117 259.975 10.0671 260.005 10.8052C260.035 11.5357 259.861 12.1977 259.067 12.3955C258.522 12.5325 257.932 12.5629 257.365 12.5629C248.779 12.5706 240.193 12.5858 231.614 12.5477C230.548 12.5477 230.086 12.7227 230.169 13.9326C230.283 15.7132 230.26 17.5014 230.169 19.282C230.124 20.3397 230.51 20.5451 231.478 20.5375C239.966 20.4995 248.453 20.5147 256.941 20.5147C257.516 20.5147 258.091 20.5299 258.658 20.606C259.566 20.7201 259.99 21.2908 259.997 22.1887C259.997 23.1094 259.521 23.6345 258.636 23.7638C258.167 23.8323 257.682 23.8095 257.198 23.8095C248.665 23.8095 240.125 23.8247 231.592 23.7867C230.502 23.7867 230.086 24.0226 230.162 25.1944C230.268 26.9217 230.268 28.6719 230.162 30.3992C230.094 31.5406 230.502 31.7384 231.531 31.7308C240.019 31.6928 248.506 31.7004 256.994 31.708C257.569 31.708 258.144 31.7308 258.711 31.8145C259.619 31.9515 260.027 32.5678 259.997 33.4505C259.967 34.2495 259.619 34.8582 258.757 34.9724C258.235 35.0408 257.713 35.0865 257.183 35.0941H242.81V35.1017Z" fill="white"/>
<path d="M130.715 32.0049H154.514C155.142 32.0049 155.762 31.9897 156.352 32.2332C157.018 32.5148 157.245 33.0702 157.222 33.7475C157.199 34.4323 156.927 34.9954 156.216 35.1476C155.656 35.2693 155.081 35.315 154.506 35.315C144.347 35.315 134.187 35.3302 124.028 35.315C123.468 35.315 122.727 35.6194 122.447 34.7367C122.159 33.8388 122.992 33.6942 123.415 33.367C131.903 26.9219 140.406 20.5073 148.908 14.085C149.332 13.7654 149.741 13.4458 150.195 13.0958C149.771 12.5099 149.196 12.761 148.727 12.761C141.487 12.7382 134.256 12.7458 127.016 12.7458C126.487 12.7458 125.965 12.7229 125.435 12.6925C124.527 12.6316 124.202 12.0077 124.157 11.2239C124.111 10.3717 124.444 9.69444 125.359 9.51943C125.775 9.43572 126.214 9.44333 126.645 9.44333C136.903 9.44333 147.161 9.44333 157.411 9.45094C157.926 9.45094 158.599 9.13896 158.902 9.92272C159.242 10.7826 158.508 11.0032 158.054 11.3533C149.279 17.981 140.504 24.5935 131.729 31.2136C131.502 31.381 131.283 31.5636 130.715 32.0202V32.0049Z" fill="white"/>
<path d="M112.106 30.0264V12.3956C112.106 11.8629 112.121 11.3379 112.174 10.8052C112.25 9.953 112.764 9.45078 113.589 9.466C114.436 9.48122 115.223 9.74755 115.359 10.7976C115.404 11.1781 115.427 11.5662 115.427 11.9542C115.427 19.3809 115.427 26.8076 115.404 34.2419C115.404 34.8126 115.745 35.5279 114.98 35.9312C114.232 36.3269 113.823 35.6953 113.354 35.3453C104.715 28.8469 96.0913 22.341 87.4598 15.835C87.2329 15.66 87.0135 15.4545 86.7639 15.3176C86.4462 15.1425 86.2041 14.6632 85.788 14.8838C85.3871 15.0969 85.5611 15.5687 85.5611 15.9263C85.546 21.6637 85.5384 27.4088 85.5535 33.1462C85.5535 34.28 85.319 35.2159 83.9649 35.2387C82.7697 35.2616 82.2628 34.5539 82.2628 33.3897C82.2704 30.7873 82.2628 28.1773 82.2628 25.5749C82.2628 20.5071 82.2553 15.4469 82.278 10.3791C82.278 9.81603 81.9754 9.10836 82.7848 8.73551C83.5186 8.39309 83.8439 9.01705 84.2599 9.32903C93.0048 15.9187 101.742 22.5236 110.479 29.1209C110.918 29.4557 111.296 29.9274 112.106 30.0264Z" fill="white"/>
<path d="M323.814 24.2059C319.88 24.2059 315.946 24.2744 312.02 24.1679C310.674 24.1298 310.447 24.5864 310.485 25.7887C310.568 28.2921 310.5 30.8032 310.515 33.3143C310.515 34.5013 310.28 35.4601 308.828 35.4677C307.443 35.4677 307.186 34.5394 307.186 33.4284V11.7267C307.186 10.5396 307.633 9.7178 308.903 9.71019C310.265 9.70258 310.515 10.6766 310.507 11.7951C310.507 14.4508 310.545 17.0988 310.485 19.7545C310.462 20.7209 310.78 20.9491 311.702 20.9415C319.714 20.9111 327.717 20.8959 335.728 20.9491C336.855 20.9491 337.097 20.5687 337.067 19.5338C337.007 16.9771 337.037 14.4204 337.052 11.8636C337.06 10.2885 337.551 9.65693 338.724 9.69497C340.176 9.73302 340.381 10.7375 340.381 11.9017V33.3143C340.381 34.4481 340.207 35.4982 338.709 35.4829C337.256 35.4677 337.037 34.4861 337.044 33.3067C337.052 30.7043 336.999 28.0943 337.067 25.4919C337.09 24.457 336.742 24.1831 335.751 24.1983C331.772 24.244 327.793 24.2212 323.814 24.2212V24.2059Z" fill="white"/>
<path d="M284.068 32.3552C289.031 32.4084 292.927 31.1225 296.111 27.9494C296.717 27.3483 297.375 26.8917 298.283 27.2646C299.523 27.7744 299.667 28.8853 298.593 30.0572C296.285 32.5835 293.418 34.1662 290.135 34.9576C283.652 36.5099 277.51 35.8098 272.207 31.4877C265.701 26.184 265.852 17.9279 272.388 12.6699C279.681 6.80311 292.185 7.46512 298.388 14.0396C299.175 14.869 299.864 15.7288 298.782 16.7409C297.791 17.6692 296.906 17.1898 296.043 16.3452C290.445 10.8437 280.15 10.4632 274.128 15.4929C269.62 19.2596 269.604 25.0655 274.121 28.8245C277.169 31.3584 280.717 32.4465 284.068 32.3628V32.3552Z" fill="white"/>
<path d="M74.5922 18.8945C74.5922 20.8729 74.5241 22.8513 74.6073 24.8221C74.7964 29.1518 72.8599 32.3553 68.9867 33.8468C61.2252 36.822 53.373 36.997 45.7855 33.1315C42.9185 31.6705 41.4887 29.0757 41.4661 25.8113C41.4282 21.0403 41.4585 16.2692 41.4434 11.4982C41.4434 10.4177 41.7157 9.5426 42.9639 9.46651C44.1213 9.39803 44.7113 10.1133 44.7189 11.5819C44.734 15.9649 44.8173 20.3554 44.6962 24.7384C44.6054 27.9495 46.0806 29.9432 48.8871 31.0998C52.9948 32.7967 57.2991 32.7586 61.6186 32.4086C63.7216 32.2412 65.7792 31.7998 67.6931 30.8411C70.0382 29.6616 71.362 27.8887 71.3242 25.1417C71.2713 20.5609 71.294 15.9877 71.3242 11.4069C71.3318 9.76327 72.4135 9.04039 73.7374 9.69479C74.456 10.0524 74.5846 10.6764 74.5771 11.3841V18.9021H74.5922V18.8945Z" fill="white"/>
<path d="M203.322 0.007982H349.784C350.722 0.007982 351.66 0.0384192 351.932 1.78856C352.219 3.6148 351.531 4.85511 350.116 4.87033C346.213 4.90838 210.153 4.93882 206.257 4.8475C205.16 4.81707 204.812 5.18231 204.82 6.8868C204.88 16.0408 204.85 25.1948 204.858 34.3564C204.858 35.3532 204.873 36.3653 204.343 37.1186C203.405 38.435 201.938 37.8034 201.635 35.9315C201.514 35.1934 201.529 34.3945 201.529 33.6259C201.529 24.7535 201.484 15.8734 201.552 7.00094C201.567 5.18231 201.196 4.80946 200.024 4.8475C196.219 4.96164 192.414 4.90077 188.608 4.88555C187.776 4.88555 186.937 4.80946 186.634 3.32564C186.263 1.46897 186.869 0.160168 188.298 0.0688565C190.121 -0.0528925 191.96 0.0232006 193.783 0.0155913H203.322V0.007982Z" fill="#384696"/>
<path d="M98.1186 66.955C95.8416 66.8256 93.8218 66.1712 92.4451 64.17C91.9987 63.5232 91.6886 62.8688 92.4753 62.2981C93.2394 61.7502 93.7765 62.1763 94.2833 62.8003C95.887 64.7711 98.565 65.3494 100.388 64.1623C102.226 62.9601 102.226 60.4642 100.388 59.2696C99.4879 58.676 98.4893 58.4173 97.4227 58.2879C95.9097 58.1053 94.601 57.4433 93.5798 56.2943C92.2408 54.7801 92.1652 53.068 93.0351 51.333C93.9656 49.484 95.6828 48.6774 97.6194 48.6546C99.5635 48.6241 101.409 49.1492 102.786 50.7167C103.346 51.3483 103.694 52.1016 103.051 52.7712C102.31 53.5473 101.674 52.931 101.137 52.3299C99.7905 50.8232 98.2018 50.5112 96.3409 51.2646C94.5405 51.9874 94.2076 53.8137 95.645 55.1377C96.7872 56.1878 98.3078 56.1117 99.6543 56.5454C101.697 57.2074 103.474 58.1358 103.898 60.5099C104.307 62.8003 103.391 64.9765 101.538 66.0951C100.494 66.7267 99.329 66.993 98.1035 66.955H98.1186Z" fill="#384696"/>
<path d="M169.507 22.3943V33.23C169.507 34.3257 169.197 35.1627 167.972 35.2388C167.056 35.2921 166.368 34.9421 166.27 33.9072C166.232 33.4735 166.209 33.0473 166.209 32.6136V11.3836C166.209 10.2651 166.663 9.45086 167.858 9.48129C169.008 9.51173 169.507 10.2879 169.507 11.4217V22.4019V22.3943Z" fill="white"/>
<path d="M206.484 60.2888C206.431 57.6027 204.714 55.9286 202.051 55.9895C199.706 56.0428 198.155 57.8234 198.208 60.3953C198.261 63.089 199.865 64.6946 202.46 64.6641C204.895 64.6337 206.529 62.8531 206.484 60.2888ZM202.255 66.8937C198.594 66.8708 195.863 64.0021 195.818 60.1214C195.78 56.6972 198.836 53.7143 202.384 53.7296C205.864 53.7448 208.791 56.7124 208.837 60.2659C208.882 63.926 205.917 66.9165 202.255 66.8937Z" fill="#384696"/>
<path d="M217.861 60.2202C217.861 58.6755 217.839 57.1308 217.877 55.5937C217.884 55.0611 217.756 54.5132 218.444 54.1175C219.163 53.699 219.533 54.1175 219.942 54.4752C220.29 54.7795 220.449 54.7339 220.887 54.5208C224.889 52.55 229.352 54.4067 229.685 59.756C229.799 61.529 229.746 63.3172 229.731 65.1054C229.723 65.9043 229.579 66.7718 228.543 66.749C227.59 66.7261 227.302 65.9272 227.287 65.1054C227.249 63.2259 227.295 61.3464 227.249 59.4669C227.196 57.3363 225.774 55.9818 223.709 56.0198C221.462 56.0579 220.176 57.3363 220.161 59.581C220.146 61.3159 220.161 63.0509 220.161 64.7858C220.161 65.7141 220.229 66.7718 218.883 66.7185C217.65 66.6729 217.899 65.6456 217.884 64.8619C217.861 63.3172 217.884 61.7801 217.884 60.2354H217.877L217.861 60.2202Z" fill="#384696"/>
<path d="M114.822 60.35C114.859 63.0057 116.562 64.7026 119.141 64.6645C121.547 64.6341 123.272 62.7698 123.241 60.2435C123.211 57.7857 121.388 55.9671 118.967 55.9823C116.546 55.9975 114.791 57.8466 114.829 60.35H114.822ZM112.567 60.5327C112.424 56.8422 115.147 53.905 118.854 53.7832C121.63 53.6919 125.367 55.7312 125.427 60.2587C125.473 63.7666 122.818 66.7419 119.338 66.9017C116.418 67.0386 112.424 64.7863 112.56 60.5403H112.567V60.5327Z" fill="#384696"/>
<path d="M158.629 60.4256C158.629 62.0616 158.614 63.6976 158.629 65.3413C158.629 65.912 158.516 66.3533 157.956 66.6348C157.411 66.9088 156.973 66.6729 156.662 66.3457C156.254 65.9196 156.004 65.9728 155.482 66.2163C151.133 68.2632 146.911 65.6304 146.76 60.7909C146.707 59.0103 146.76 57.2297 146.722 55.4491C146.7 54.5284 147.146 54.0795 147.993 54.0795C148.795 54.0795 149.166 54.5665 149.166 55.3959C149.166 57.3667 149.12 59.3451 149.219 61.3159C149.317 63.3552 150.331 64.3825 152.282 64.6336C154.03 64.8543 155.868 63.8727 156.224 62.2899C156.466 61.2322 156.337 60.0908 156.36 58.9875C156.383 57.7395 156.405 56.484 156.375 55.2361C156.36 54.3838 156.768 53.9349 157.563 53.9729C158.259 54.0034 158.637 54.4295 158.622 55.2209C158.576 56.9558 158.607 58.6907 158.607 60.4256H158.629Z" fill="#384696"/>
<path d="M243.733 66.9319C241.88 66.9851 240.45 66.3383 239.186 65.2654C238.612 64.7784 238.332 64.1849 238.876 63.5381C239.421 62.8837 239.988 63.0435 240.571 63.5914C241.713 64.6643 243.135 64.8393 244.588 64.6034C245.337 64.4817 246.244 64.2458 246.29 63.1881C246.335 62.1152 245.548 61.8793 244.716 61.6662C243.839 61.4455 242.976 61.1792 242.106 60.9281C239.973 60.3118 238.861 59.1247 238.869 57.4735C238.884 55.807 240.389 54.1634 242.364 53.8134C244.459 53.4405 246.335 53.958 247.795 55.5864C248.189 56.0201 248.703 56.4538 248.037 57.1615C247.432 57.8083 246.948 57.7702 246.328 57.2452C245.45 56.4995 244.573 55.7842 243.279 55.9668C242.364 56.0962 241.501 56.3245 241.365 57.3213C241.214 58.417 242.084 58.7442 242.992 58.9345C244.202 59.1932 245.45 59.3225 246.57 59.9237C247.712 60.5324 248.642 61.3542 248.688 62.7315C248.741 64.3066 247.946 65.5622 246.577 66.2166C245.669 66.6503 244.678 67.1754 243.733 66.9242V66.9319Z" fill="#384696"/>
<path d="M169.031 60.0608C169.031 59.4369 169.008 58.8053 169.031 58.1813C169.076 57.2073 169.106 56.3246 167.692 56.4616C167.177 56.5149 166.799 56.104 166.792 55.5409C166.792 54.8789 167.177 54.3386 167.798 54.3614C169.023 54.4071 169.069 53.7299 168.985 52.8244C168.948 52.3982 168.985 51.9569 169.023 51.5308C169.076 50.7775 169.417 50.2068 170.218 50.222C170.945 50.2372 171.278 50.7699 171.3 51.4851C171.3 51.6754 171.346 51.8732 171.315 52.0634C171.081 53.6918 171.512 54.6125 173.411 54.3462C174.084 54.2549 174.735 54.6506 174.697 55.5333C174.651 56.3551 174.054 56.5073 173.381 56.5149C172.995 56.5149 172.617 56.5453 172.231 56.5149C171.557 56.4768 171.27 56.7584 171.308 57.4432C171.406 59.1629 171.194 60.8902 171.55 62.6175C171.769 63.7209 172.269 64.1622 173.29 64.3373C174.175 64.4894 175.537 64.4818 175.166 65.8819C174.833 67.1299 173.6 66.9016 172.616 66.6353C170.302 66.0113 169.159 64.5199 169.053 62.0621C169.023 61.3924 169.053 60.7152 169.053 60.038H169.031V60.0608Z" fill="#384696"/>
<path d="M134.021 56.6438V50.427C134.021 49.5748 134.301 49.0117 135.224 48.9737C136.29 48.928 136.321 49.6813 136.321 50.4423C136.321 54.3458 136.343 58.257 136.321 62.1606C136.321 63.439 136.555 64.4586 138.098 64.6184C138.704 64.6793 139.044 65.1587 138.931 65.7522C138.802 66.437 138.303 66.7794 137.576 66.8023C135.67 66.8555 134.119 65.1663 134.036 62.8759C133.998 61.8182 134.036 60.7529 134.036 59.6952V56.6591L134.021 56.6438Z" fill="#384696"/>
<path d="M186.513 59.7566C186.528 61.6818 186.596 63.5993 186.339 65.5169C186.248 66.2169 186.052 66.8104 185.272 66.7648C184.523 66.7191 184.07 66.2093 184.07 65.4103C184.07 61.9937 184.07 58.5772 184.054 55.1682C184.054 54.354 184.561 53.9659 185.182 53.9507C185.847 53.9355 186.505 54.2627 186.505 55.1378C186.513 56.6748 186.505 58.2195 186.505 59.7566H186.513Z" fill="#384696"/>
<path d="M185.265 49.5596C186.127 49.5976 186.778 50.0237 186.748 50.914C186.717 51.7434 186.18 52.2533 185.227 52.2228C184.38 52.1924 183.903 51.9185 183.888 50.9749C183.865 49.9781 184.319 49.5596 185.265 49.5672V49.5596Z" fill="#384696"/>
<path d="M45.904 58.3089H84.7558C85.7874 58.3089 86.819 58.3325 87.1217 59.568C87.438 60.8585 86.6815 61.7398 85.1203 61.7476C80.8217 61.7712 53.435 61.7948 49.1364 61.7319C47.926 61.7162 43.5518 61.7004 42.2588 61.7319C38.0635 61.8106 7.14158 61.7712 2.94622 61.7555C2.02462 61.7555 1.10301 61.7004 0.772885 60.6539C0.360227 59.3398 1.03424 58.4112 2.60922 58.3483C4.62436 58.2617 33.3729 58.3168 35.3881 58.3089H45.904Z" fill="#384696"/>
<path d="M351.629 46.1508V60.4639C351.629 61.3999 351.607 62.3358 350.419 62.6174C349.178 62.9065 348.331 62.2217 348.323 60.7987C348.301 56.8952 348.278 52.9916 348.339 49.088C348.354 47.9847 348.369 44.0126 348.339 42.8484C348.263 39.0437 348.301 35.2314 348.316 31.4268C348.316 30.5898 348.369 29.7527 349.375 29.456C350.638 29.0831 351.531 29.6919 351.591 31.1224C351.675 32.9487 351.622 34.7825 351.629 36.6163V46.1584V46.1508Z" fill="#384696"/>
<path d="M306.021 59.5967H348.755C349.889 59.5967 351.024 59.6195 351.357 60.8142C351.705 62.0621 350.873 62.9144 349.156 62.922C344.428 62.9448 314.305 62.9676 309.577 62.9067C308.245 62.8915 303.434 62.8763 302.012 62.9067C297.397 62.9828 263.386 62.9448 258.772 62.9296C257.758 62.9296 256.744 62.8763 256.381 61.8643C255.927 60.5935 256.669 59.6956 258.401 59.6347C260.617 59.551 292.238 59.6043 294.455 59.5967H306.021Z" fill="#384696"/>
<path d="M120.715 63.9111C122.804 63.9111 124.497 62.2077 124.497 60.1064C124.497 58.0052 122.804 56.3018 120.715 56.3018C118.626 56.3018 116.932 58.0052 116.932 60.1064C116.932 62.2077 118.626 63.9111 120.715 63.9111Z" fill="#384696"/>
<path d="M203.927 63.9111C206.016 63.9111 207.709 62.2077 207.709 60.1064C207.709 58.0052 206.016 56.3018 203.927 56.3018C201.838 56.3018 200.145 58.0052 200.145 60.1064C200.145 62.2077 201.838 63.9111 203.927 63.9111Z" fill="#384696"/>
<path d="M35.1297 24.511C35.1297 26.5122 35.1373 28.5135 35.1297 30.5147C35.0995 35.3238 33.0494 38.2458 28.4349 39.9883C23.3741 41.9059 18.1166 41.8678 12.8364 41.3199C9.84071 41.008 6.99635 40.1633 4.49241 38.4284C2.19272 36.8381 0.944534 34.6618 0.778109 31.8996C0.717591 30.8723 0.778109 29.8831 2.1549 29.731C3.49386 29.5864 4.06122 30.294 4.1293 31.5267C4.25034 33.9465 5.71034 35.4303 7.77553 36.488C9.70454 37.4696 11.8 37.8881 13.9332 38.086C17.9199 38.4664 21.8838 38.436 25.7797 37.3707C30.2429 36.1532 31.7937 34.1215 31.7785 29.594C31.771 25.4469 31.771 11.2099 31.7785 7.06281C31.7785 5.48768 32.3232 4.74197 33.4655 4.82567C34.8877 4.9322 35.1676 5.89097 35.1524 7.10086C35.1146 9.54344 35.1373 22.0684 35.1373 24.5034L35.1297 24.511Z" fill="#384696"/>
<path d="M18.0409 4.36134C22.9656 4.36134 27.8902 4.36134 32.8225 4.36134C33.7908 4.36134 34.7591 4.38417 35.0465 5.62448C35.3415 6.91807 34.638 7.80075 33.1705 7.81597C29.1384 7.83879 25.1064 7.86923 21.082 7.80075C19.9472 7.77792 15.8471 7.77031 14.6368 7.80075C10.7106 7.88445 6.77697 7.83879 2.84328 7.82358C1.9809 7.82358 1.11852 7.77031 0.80836 6.71262C0.422556 5.39621 1.05043 4.46026 2.53313 4.39939C4.41676 4.31568 6.31551 4.36895 8.20671 4.36134C11.4898 4.36134 14.7729 4.36134 18.056 4.36134H18.0409Z" fill="#384696"/>
<path d="M4.12175 14.033C4.12175 16.7648 4.12175 19.5041 4.12175 22.2359C4.12175 22.7761 4.09905 23.3088 2.86599 23.4686C1.57998 23.636 0.702467 23.2403 0.687338 22.4261C0.664644 20.189 0.634385 17.9518 0.702468 15.7147C0.725162 15.0831 0.732727 12.8079 0.702468 12.1383C0.619255 9.95443 0.664643 7.77817 0.679773 5.5943C0.679773 5.11491 0.732727 4.63552 1.78423 4.46051C3.09294 4.24745 4.0234 4.59748 4.08392 5.41928C4.16713 6.46937 4.11418 7.51945 4.12175 8.56954C4.12175 10.3958 4.12175 12.2144 4.12175 14.0406V14.033Z" fill="#384696"/>
<path d="M7.5259 20.3713C7.54103 21.5279 8.28238 22.266 9.40196 22.2508C10.4459 22.2355 11.2024 21.429 11.1872 20.3256C11.1721 19.2603 10.3778 18.4613 9.32632 18.4689C8.27481 18.4689 7.51077 19.2831 7.5259 20.3713ZM6.54248 20.455C6.48196 18.8494 7.66207 17.571 9.28093 17.5178C10.4913 17.4797 12.1102 18.37 12.1404 20.3332C12.1631 21.8551 11.0057 23.1563 9.49274 23.2248C8.22186 23.2856 6.48196 22.304 6.54248 20.455Z" fill="#384696"/>
<path d="M10.0903 21.9231C11.0011 21.9231 11.7395 21.1804 11.7395 20.2643C11.7395 19.3482 11.0011 18.6055 10.0903 18.6055C9.17956 18.6055 8.44122 19.3482 8.44122 20.2643C8.44122 21.1804 9.17956 21.9231 10.0903 21.9231Z" fill="#384696"/>
<path d="M25.9612 20.3713C25.9764 21.5279 26.7177 22.266 27.8373 22.2508C28.8812 22.2355 29.6377 21.429 29.6226 20.3256C29.6075 19.2603 28.8132 18.4613 27.7616 18.4689C26.7101 18.4689 25.9461 19.2831 25.9612 20.3713ZM24.9778 20.455C24.9173 18.8494 26.0974 17.571 27.7163 17.5178C28.9266 17.4797 30.5455 18.37 30.5757 20.3332C30.5984 21.8551 29.441 23.1563 27.9281 23.2248C26.6572 23.2856 24.9173 22.304 24.9778 20.455Z" fill="#384696"/>
<path d="M28.5257 22.0306C29.4365 22.0306 30.1748 21.2879 30.1748 20.3717C30.1748 19.4556 29.4365 18.7129 28.5257 18.7129C27.6149 18.7129 26.8766 19.4556 26.8766 20.3717C26.8766 21.2879 27.6149 22.0306 28.5257 22.0306Z" fill="#384696"/>
</svg>
